Coordinates
version=1
nRows=14
nColumns=33
inDegrees=yes

Units are S.I. units (second, meters, Newtons, ...)
Angles are in degrees.

endheader
time	ground_thorax_rot_x	ground_thorax_rot_y	ground_thorax_rot_z	ground_thorax_tx	ground_thorax_ty	ground_thorax_tz	clav_prot_r	clav_elev_r	scapula_abduction_r	scapula_elevation_r	scapula_upward_rot_r	scapula_winging_r	shoulder_elv_r	plane_of_elev_r	axial_rot_r	elbow_flexion_r	pro_sup_r	wrist_flex_r	wrist_dev_r	clav_prot_l	clav_elev_l	scapula_abduction_l	scapula_elevation_l	scapula_upward_rot_l	scapula_winging_l	shoulder_elv_l	plane_of_elev_l	axial_rot_l	elbow_flexion_l	pro_sup_l	wrist_flex_l	wrist_dev_l
      4.10000000	     -2.28711124	      2.48220498	     10.73216196	     -0.09765217	      1.03059369	      0.00869435	      9.29046858	     -7.90631634	     18.00175776	     -2.52004893	      3.70354012	     -4.89815627	    -41.75875154	    -72.87667094	    102.65141963	    -74.63439156	   -154.04340338	     38.18165979	    -22.74959698	     11.68698704	     -2.03979731	    -15.65212568	    -20.21569306	    -36.14889218	      0.03755679	     63.14819940	    -30.61765732	      2.46057887	     71.46087503	     15.52510576	      8.80247224	    -22.97578438
      4.11000000	     -2.31775434	      2.47202879	     10.82340865	     -0.09771617	      1.03020914	      0.00855484	      9.51407193	     -7.52959710	     18.77896689	     -2.50129566	      4.49751491	     -5.38039404	    -40.36475431	    -72.54169106	    104.26565380	    -75.42690953	   -156.08562620	     34.36399008	    -20.60506499	     11.93307755	     -2.07578302	    -16.07174958	    -20.10387071	    -36.02111910	      0.25332724	     63.43534167	    -29.89931110	      2.55378900	     71.74154247	     14.66031802	     11.02470760	    -20.73846999
      4.12000000	     -2.33192434	      2.44656491	     10.82390175	     -0.09781584	      1.03025819	      0.00842256	      9.94094850	     -7.72430882	     19.60781689	     -2.73611048	      4.65592206	     -5.64741753	    -38.33995709	    -72.12229706	    105.47845512	    -76.28712435	   -157.51721134	     31.65330371	    -18.65433099	     12.14723513	     -2.33506982	    -16.45775729	    -19.80801215	    -35.95320398	      0.46289463	     63.82217869	    -29.12095874	      2.80357879	     71.64529636	     13.90543099	     12.76606658	    -18.99029255
      4.13000000	     -2.38328209	      2.61220271	     10.74149645	     -0.09763383	      1.03002399	      0.00836644	     10.02953238	     -7.54438053	     20.18257987	     -2.89502517	      5.46344280	     -5.97233552	    -36.73445058	    -71.54865842	    106.76412136	    -76.72323852	   -158.73850180	     29.18564746	    -16.93188119	     12.40105237	     -2.40010348	    -16.85553193	    -19.57364124	    -35.62581538	      0.71006040	     64.14678447	    -28.13015446	      2.73057952	     71.31521613	     13.30255194	     14.05646844	    -17.69913785
      4.14000000	     -2.41503040	      2.67183483	     10.73421892	     -0.09773246	      1.03003643	      0.00819649	     10.37905296	     -7.64727619	     21.05820203	     -3.17912944	      5.96303621	     -6.30521895	    -34.84175605	    -71.01253338	    107.93396271	    -77.13282580	   -159.94934188	     26.34290611	    -14.79449900	     12.72183912	     -2.65269952	    -17.39655212	    -19.18710611	    -35.36639776	      1.02703237	     64.35302315	    -27.28770652	      2.83932024	     70.86108861	     12.54798902	     15.44200577	    -16.29304626
      4.15000000	     -2.45226920	      2.80374898	     10.88466541	     -0.09772719	      1.03004249	      0.00809763	     10.59505270	     -7.57619322	     21.76910652	     -3.35849228	      6.58945378	     -6.63992613	    -32.91016905	    -70.34470992	    109.27171276	    -77.13091367	   -161.02909330	     23.46096795	    -12.58619317	     13.02967175	     -2.81687060	    -17.90096028	    -18.86618490	    -35.06365352	      1.32362775	     64.48302395	    -26.29913233	      2.81355518	     70.02263502	     11.81515774	     16.76726018	    -14.88638336
      4.16000000	     -2.61785711	      3.02260892	     10.75436267	     -0.09759010	      1.03063253	      0.00787508	     10.78816953	     -8.06951216	     22.59031198	     -4.11292013	      7.43239482	     -6.79537262	    -31.92632825	    -69.67040302	    109.30689405	    -76.54842295	   -161.26585593	     22.73647814	    -12.13706123	     13.31491957	     -3.12825164	    -18.33795904	    -18.30396595	    -34.54297898	      1.63864999	     64.84677126	    -25.41113885	      2.56637250	     69.07912538	     11.76975559	     17.02462925	    -14.50148273
      4.17000000	     -2.49780209	      3.11785087	     10.91153021	     -0.09798628	      1.02980584	      0.00781132	     11.27522711	     -7.62255815	     23.70009688	     -3.91870599	      7.96437867	     -7.44594540	    -29.17213933	    -68.82425340	    111.35210085	    -76.62394220	   -162.48788197	     18.17254377	     -8.29826494	     13.80537385	     -3.32787508	    -19.17092900	    -17.94509638	    -34.25399288	      2.09667872	     64.65735627	    -24.28661812	      2.67952156	     68.16792205	     10.42728139	     19.12046308	    -12.44750142
      4.18000000	     -2.83571275	      3.26863348	     10.77582028	     -0.09779945	      1.03039621	      0.00753349	     11.44977343	     -8.22863210	     24.61640385	     -4.83545869	      9.00981908	     -7.58603335	    -28.13935756	    -68.03147808	    111.59242265	    -75.38925223	   -162.61177955	     17.41630612	     -7.85531263	     14.10492913	     -3.58877463	    -19.63259660	    -17.42359412	    -33.71801101	      2.41652794	     65.05402715	    -23.46807111	      2.56827838	     67.04180595	     10.38357229	     19.32367464	    -12.05139565
      4.19000000	     -2.87288311	      3.36607893	     10.80246869	     -0.09783075	      1.02955483	      0.00729058	     11.62446983	     -7.76053120	     25.64642848	     -4.89194700	     10.29278283	     -8.21408358	    -25.93171787	    -67.16158909	    113.61499567	    -74.25726021	   -163.05843509	     14.21515905	     -5.04532093	     14.56353287	     -3.55127582	    -20.37201171	    -17.19215346	    -33.22213735	      2.85728757	     64.71079863	    -22.18596093	      2.75209565	     65.85519553	      9.37330159	     20.82631591	    -10.62403757
      4.20000000	     -2.93184641	      3.41272399	     10.98781939	     -0.09825405	      1.02940266	      0.00704819	     12.22111692	     -7.99532208	     26.74380869	     -5.14303828	     10.43601028	     -8.58506619	    -22.75379229	    -66.10883124	    115.57590363	    -72.99575634	   -162.95349015	     11.76630886	     -3.15125557	     15.05276059	     -3.95587328	    -21.20928115	    -16.64463804	    -32.93942428	      3.32366264	     64.64395804	    -21.28006292	      2.90793514	     64.49092664	      8.38739251	     22.08449165	     -9.26196280
      4.21000000	     -3.15798277	      3.68144626	     10.85334432	     -0.09802054	      1.02973315	      0.00683263	     12.42093242	     -8.61209215	     27.64921705	     -6.00800115	     11.37503355	     -8.68874315	    -21.51467707	    -65.27057418	    115.75234027	    -71.14716819	   -162.93475669	     11.11451130	     -2.90014410	     15.36929371	     -4.31463518	    -21.70378563	    -16.00913332	    -32.35267178	      3.66712663	     64.98162065	    -20.27072738	      2.53749773	     62.91390013	      8.44266101	     22.23686821	     -8.85963887
      4.22000000	     -3.27197794	      3.75811257	     10.88904341	     -0.09782352	      1.02925353	      0.00661331	     12.51988512	     -8.49057698	     28.51926192	     -6.30622199	     12.54242517	     -9.08659468	    -19.30719467	    -64.27473683	    117.62921125	    -68.92628407	   -162.68487878	      9.41613599	     -1.43526596	     15.78877206	     -4.34501240	    -22.37896342	    -15.67653870	    -31.77550242	      4.09569895	     64.53426801	    -19.00640492	      2.85118260	     61.14773466	      7.76896046	     23.23177992	     -7.95519441
      4.23000000	     -3.50428436	      4.05402338	     10.76328776	     -0.09768674	      1.02939808	      0.00646904	     12.88816165	     -9.17586578	     29.56742840	     -7.13132428	     13.24543674	     -9.20223628	    -17.80367409	    -63.32823138	    117.77426385	    -66.71710825	   -162.57124073	      8.69117261	     -1.13682052	     16.16288807	     -4.78845687	    -22.98211289	    -14.95650575	    -31.17813987	      4.48584869	     64.85541416	    -18.06666872	      2.42941523	     59.41485090	      7.79490456	     23.49615062	     -7.51626824
